<svg width="50" height="50" viewBox="-5 -7 50 50" fill="none" xmlns="http://www.w3.org/2000/svg">
  <path d="M0 36L3.56244 32.0601H36.0019C38.1994 32.0601 40 30.3519 40 28.2671V4.79297C40 2.70821 38.1994 1 36.0019 1H3.99806C1.80058 1 0 2.70821 0 4.79297V36Z" fill="#1C75BC"/>
  <path d="M13 4H3V11H13V4Z" fill="white"/>
  <path d="M25 4H15V11H25V4Z" fill="white"/>
  <path d="M37 4H27V11H37V4Z" fill="white"/>
  <path d="M37 13H27V20H37V13Z" fill="white"/>
  <path d="M25 13H15V20H25V13Z" fill="white"/>
  <path d="M25 22H15V29H25V22Z" fill="white"/>
  </g>
  </svg>