<?xml version="1.0" encoding="utf-8"?>
<svg viewBox="149.4 130 192 151" xmlns="http://www.w3.org/2000/svg">
  <path style="stroke: rgb(0, 0, 0); stroke-width: 3px; fill: rgb(134, 178, 229);" d="M 245.387 132.509 C 193.624 132.509 151.663 156.279 151.663 181.984 C 151.663 202.124 177.621 219.241 213.763 225.652 C 215.907 242.103 211.848 269.018 201.434 279.118 C 217.132 265.207 233.901 241.74 240.027 228.313 C 241.788 228.313 243.625 228.434 245.387 228.434 C 297.149 228.434 339.034 207.628 339.034 181.984 C 339.034 156.339 297.149 132.509 245.387 132.509 Z"/>
  <rect y="147.031" width="45.493" height="3.821" style="fill: rgb(215, 235, 113);" x="193.856"/>
  <rect y="150.548" width="45.493" height="24.968" style="fill: rgb(228, 250, 123);" x="193.856"/>
  <rect y="146.743" width="45.493" height="3.821" style="fill: rgb(215, 235, 113);" x="248.145"/>
  <rect y="150.261" width="45.493" height="24.968" style="fill: rgb(228, 250, 123);" x="248.145"/>
  <rect y="182.374" width="45.493" height="3.821" style="fill: rgb(215, 235, 113);" x="194.037"/>
  <rect y="185.891" width="45.493" height="24.968" style="fill: rgb(228, 250, 123);" x="194.037"/>
  <rect y="182.086" width="45.493" height="3.821" style="fill: rgb(215, 235, 113);" x="248.326"/>
  <rect y="185.604" width="45.493" height="24.968" style="fill: rgb(228, 250, 123);" x="248.326"/>
</svg>